<svg xmlns="http://www.w3.org/2000/svg" viewBox="0 8.84000015258789 868.9000244140625 158.22140502929688" data-asc="0.9052734375" width="868.9000244140625" height="158.22140502929688"><defs/><g fill="#000000"><g transform="translate(0, 0)"><path d="M0 45.26L0 9.47L13.50 9.47Q17.07 9.47 18.95 9.81Q21.58 10.25 23.36 11.49Q25.15 12.72 26.23 14.94Q27.32 17.16 27.32 19.82Q27.32 24.39 24.41 27.55Q21.51 30.71 13.92 30.71L4.74 30.71L4.74 45.26L0 45.26M4.74 26.49L13.99 26.49Q18.58 26.49 20.51 24.78Q22.44 23.07 22.44 19.97Q22.44 17.72 21.30 16.13Q20.17 14.53 18.31 14.01Q17.11 13.70 13.89 13.70L4.74 13.70L4.74 26.49ZM31.91 27.83Q31.91 18.92 36.69 13.88Q41.48 8.84 49.05 8.84Q54.00 8.84 57.98 11.21Q61.96 13.57 64.05 17.81Q66.14 22.05 66.14 27.42Q66.14 32.86 63.94 37.16Q61.74 41.46 57.71 43.66Q53.69 45.87 49.02 45.87Q43.97 45.87 39.99 43.43Q36.01 40.99 33.96 36.77Q31.91 32.54 31.91 27.83M36.79 27.91Q36.79 34.38 40.27 38.10Q43.75 41.82 49.00 41.82Q54.35 41.82 57.80 38.06Q61.25 34.30 61.25 27.39Q61.25 23.02 59.78 19.76Q58.30 16.50 55.46 14.71Q52.61 12.92 49.07 12.92Q44.04 12.92 40.42 16.37Q36.79 19.82 36.79 27.91ZM97.78 32.71L102.51 33.91Q101.03 39.75 97.16 42.81Q93.29 45.87 87.70 45.87Q81.91 45.87 78.28 43.52Q74.66 41.16 72.77 36.69Q70.87 32.23 70.87 27.10Q70.87 21.51 73.01 17.35Q75.15 13.18 79.09 11.02Q83.03 8.86 87.77 8.86Q93.14 8.86 96.80 11.60Q100.46 14.33 101.90 19.29L97.24 20.39Q96.00 16.48 93.63 14.70Q91.26 12.92 87.67 12.92Q83.54 12.92 80.77 14.89Q78.00 16.87 76.88 20.20Q75.76 23.54 75.76 27.08Q75.76 31.64 77.09 35.05Q78.42 38.45 81.23 40.14Q84.03 41.82 87.30 41.82Q91.28 41.82 94.04 39.53Q96.80 37.23 97.78 32.71ZM118.38 34.08L118.38 30.54L168.38 30.54L168.38 34.08L118.38 34.08ZM186.62 45.26L186.62 22.75L182.74 22.75L182.74 19.34L186.62 19.34L186.62 16.58Q186.62 13.96 187.08 12.70Q187.72 10.99 189.32 9.92Q190.92 8.86 193.80 8.86Q195.65 8.86 197.90 9.30L197.24 13.13Q195.87 12.89 194.65 12.89Q192.65 12.89 191.82 13.75Q190.99 14.60 190.99 16.94L190.99 19.34L196.04 19.34L196.04 22.75L190.99 22.75L190.99 45.26L186.62 45.26ZM197.83 32.30Q197.83 25.10 201.83 21.63Q205.18 18.75 209.99 18.75Q215.33 18.75 218.73 22.25Q222.12 25.76 222.12 31.93Q222.12 36.94 220.62 39.81Q219.12 42.68 216.25 44.26Q213.38 45.85 209.99 45.85Q204.54 45.85 201.18 42.36Q197.83 38.87 197.83 32.30M202.34 32.30Q202.34 37.28 204.52 39.76Q206.69 42.24 209.99 42.24Q213.26 42.24 215.43 39.75Q217.60 37.26 217.60 32.15Q217.60 27.34 215.42 24.87Q213.23 22.39 209.99 22.39Q206.69 22.39 204.52 24.85Q202.34 27.32 202.34 32.30ZM227.22 45.26L227.22 19.34L231.18 19.34L231.18 23.27Q232.69 20.51 233.97 19.63Q235.25 18.75 236.79 18.75Q239.01 18.75 241.31 20.17L239.79 24.24Q238.18 23.29 236.57 23.29Q235.13 23.29 233.98 24.16Q232.84 25.02 232.35 26.56Q231.62 28.91 231.62 31.69L231.62 45.26L227.22 45.26ZM261.67 36.91L266.21 37.48Q265.14 41.46 262.23 43.65Q259.33 45.85 254.81 45.85Q249.12 45.85 245.79 42.35Q242.46 38.84 242.46 32.52Q242.46 25.98 245.83 22.36Q249.19 18.75 254.57 18.75Q259.77 18.75 263.06 22.29Q266.36 25.83 266.36 32.25Q266.36 32.64 266.33 33.42L247.00 33.42Q247.24 37.70 249.41 39.97Q251.59 42.24 254.83 42.24Q257.25 42.24 258.96 40.97Q260.67 39.70 261.67 36.91M247.24 29.81L261.72 29.81Q261.43 26.54 260.06 24.90Q257.96 22.36 254.61 22.36Q251.59 22.36 249.52 24.39Q247.46 26.42 247.24 29.81ZM271.75 14.53L271.75 9.47L276.15 9.47L276.15 14.53L271.75 14.53M271.75 45.26L271.75 19.34L276.15 19.34L276.15 45.26L271.75 45.26ZM282.03 47.41L286.30 48.05Q286.57 50.02 287.79 50.93Q289.43 52.15 292.26 52.15Q295.31 52.15 296.97 50.93Q298.63 49.71 299.22 47.51Q299.56 46.17 299.54 41.87Q296.66 45.26 292.36 45.26Q287.01 45.26 284.08 41.41Q281.15 37.55 281.15 32.15Q281.15 28.44 282.50 25.31Q283.84 22.17 286.39 20.46Q288.94 18.75 292.38 18.75Q296.97 18.75 299.95 22.46L299.95 19.34L304.00 19.34L304.00 41.75Q304.00 47.80 302.77 50.33Q301.54 52.86 298.86 54.32Q296.19 55.79 292.29 55.79Q287.65 55.79 284.79 53.70Q281.93 51.61 282.03 47.41M285.67 31.84Q285.67 36.94 287.70 39.28Q289.72 41.63 292.77 41.63Q295.80 41.63 297.85 39.29Q299.90 36.96 299.90 31.98Q299.90 27.22 297.79 24.80Q295.68 22.39 292.70 22.39Q289.77 22.39 287.72 24.77Q285.67 27.15 285.67 31.84ZM310.64 45.26L310.64 19.34L314.60 19.34L314.60 23.02Q317.46 18.75 322.85 18.75Q325.20 18.75 327.16 19.59Q329.13 20.43 330.10 21.80Q331.08 23.17 331.47 25.05Q331.71 26.27 331.71 29.32L331.71 45.26L327.32 45.26L327.32 29.49Q327.32 26.81 326.81 25.48Q326.29 24.15 324.99 23.35Q323.68 22.56 321.92 22.56Q319.12 22.56 317.08 24.34Q315.04 26.12 315.04 31.10L315.04 45.26L310.64 45.26ZM337.57 27.83Q337.57 18.92 342.36 13.88Q347.14 8.84 354.71 8.84Q359.67 8.84 363.65 11.21Q367.63 13.57 369.71 17.81Q371.80 22.05 371.80 27.42Q371.80 32.86 369.60 37.16Q367.41 41.46 363.38 43.66Q359.35 45.87 354.69 45.87Q349.63 45.87 345.65 43.43Q341.67 40.99 339.62 36.77Q337.57 32.54 337.57 27.83M342.46 27.91Q342.46 34.38 345.94 38.10Q349.41 41.82 354.66 41.82Q360.01 41.82 363.46 38.06Q366.92 34.30 366.92 27.39Q366.92 23.02 365.44 19.76Q363.96 16.50 361.12 14.71Q358.28 12.92 354.74 12.92Q349.71 12.92 346.08 16.37Q342.46 19.82 342.46 27.91ZM381.40 45.26L377.32 45.26L377.32 9.47L381.71 9.47L381.71 22.24Q384.50 18.75 388.82 18.75Q391.21 18.75 393.35 19.71Q395.48 20.68 396.86 22.42Q398.24 24.17 399.02 26.64Q399.80 29.10 399.80 31.91Q399.80 38.57 396.51 42.21Q393.21 45.85 388.60 45.85Q384.01 45.85 381.40 42.02L381.40 45.26M381.35 32.10Q381.35 36.77 382.62 38.84Q384.69 42.24 388.23 42.24Q391.11 42.24 393.21 39.73Q395.31 37.23 395.31 32.28Q395.31 27.20 393.30 24.78Q391.28 22.36 388.43 22.36Q385.55 22.36 383.45 24.87Q381.35 27.37 381.35 32.10ZM405.13 14.58L405.13 9.47L409.52 9.47L409.52 14.58L405.13 14.58M399.56 55.32L400.39 51.59Q401.71 51.93 402.47 51.93Q403.81 51.93 404.47 51.04Q405.13 50.15 405.13 46.58L405.13 19.34L409.52 19.34L409.52 46.68Q409.52 51.46 408.28 53.34Q406.69 55.79 403.00 55.79Q401.22 55.79 399.56 55.32ZM434.01 36.91L438.55 37.48Q437.48 41.46 434.57 43.65Q431.67 45.85 427.15 45.85Q421.46 45.85 418.13 42.35Q414.79 38.84 414.79 32.52Q414.79 25.98 418.16 22.36Q421.53 18.75 426.90 18.75Q432.10 18.75 435.40 22.29Q438.70 25.83 438.70 32.25Q438.70 32.64 438.67 33.42L419.34 33.42Q419.58 37.70 421.75 39.97Q423.93 42.24 427.17 42.24Q429.59 42.24 431.30 40.97Q433.01 39.70 434.01 36.91M419.58 29.81L434.06 29.81Q433.76 26.54 432.40 24.90Q430.30 22.36 426.95 22.36Q423.93 22.36 421.86 24.39Q419.80 26.42 419.58 29.81ZM460.99 35.77L465.31 36.33Q464.60 40.80 461.68 43.32Q458.76 45.85 454.52 45.85Q449.19 45.85 445.96 42.37Q442.72 38.89 442.72 32.40Q442.72 28.20 444.12 25.05Q445.51 21.90 448.35 20.32Q451.20 18.75 454.54 18.75Q458.76 18.75 461.45 20.89Q464.14 23.02 464.89 26.95L460.62 27.61Q460.01 25 458.46 23.68Q456.91 22.36 454.71 22.36Q451.39 22.36 449.32 24.74Q447.24 27.12 447.24 32.28Q447.24 37.50 449.24 39.87Q451.25 42.24 454.47 42.24Q457.06 42.24 458.79 40.65Q460.52 39.06 460.99 35.77ZM478.66 41.33L479.30 45.21Q477.44 45.61 475.98 45.61Q473.58 45.61 472.27 44.85Q470.95 44.09 470.41 42.86Q469.87 41.63 469.87 37.67L469.87 22.75L466.65 22.75L466.65 19.34L469.87 19.34L469.87 12.92L474.24 10.28L474.24 19.34L478.66 19.34L478.66 22.75L474.24 22.75L474.24 37.92Q474.24 39.79 474.48 40.33Q474.71 40.87 475.23 41.19Q475.76 41.50 476.73 41.50Q477.47 41.50 478.66 41.33ZM506.45 41.33L507.08 45.21Q505.22 45.61 503.76 45.61Q501.37 45.61 500.05 44.85Q498.73 44.09 498.19 42.86Q497.66 41.63 497.66 37.67L497.66 22.75L494.43 22.75L494.43 19.34L497.66 19.34L497.66 12.92L502.03 10.28L502.03 19.34L506.45 19.34L506.45 22.75L502.03 22.75L502.03 37.92Q502.03 39.79 502.26 40.33Q502.49 40.87 503.02 41.19Q503.54 41.50 504.52 41.50Q505.25 41.50 506.45 41.33ZM528.49 36.91L533.03 37.48Q531.96 41.46 529.05 43.65Q526.15 45.85 521.63 45.85Q515.94 45.85 512.61 42.35Q509.28 38.84 509.28 32.52Q509.28 25.98 512.65 22.36Q516.02 18.75 521.39 18.75Q526.59 18.75 529.88 22.29Q533.18 25.83 533.18 32.25Q533.18 32.64 533.15 33.42L513.82 33.42Q514.06 37.70 516.24 39.97Q518.41 42.24 521.66 42.24Q524.07 42.24 525.78 40.97Q527.49 39.70 528.49 36.91M514.06 29.81L528.54 29.81Q528.25 26.54 526.88 24.90Q524.78 22.36 521.44 22.36Q518.41 22.36 516.35 24.39Q514.28 26.42 514.06 29.81ZM535.62 45.26L545.09 31.79L536.33 19.34L541.82 19.34L545.80 25.42Q546.92 27.15 547.61 28.32Q548.68 26.71 549.58 25.46L553.96 19.34L559.20 19.34L550.24 31.54L559.89 45.26L554.49 45.26L549.17 37.21L547.75 35.03L540.94 45.26L535.62 45.26ZM573.14 41.33L573.78 45.21Q571.92 45.61 570.46 45.61Q568.07 45.61 566.75 44.85Q565.43 44.09 564.89 42.86Q564.36 41.63 564.36 37.67L564.36 22.75L561.13 22.75L561.13 19.34L564.36 19.34L564.36 12.92L568.73 10.28L568.73 19.34L573.14 19.34L573.14 22.75L568.73 22.75L568.73 37.92Q568.73 39.79 568.96 40.33Q569.19 40.87 569.71 41.19Q570.24 41.50 571.22 41.50Q571.95 41.50 573.14 41.33Z"/></g><g transform="translate(0, 60.595703125)"><path d="M11.79 45.26L11.79 13.70L0 13.70L0 9.47L28.37 9.47L28.37 13.70L16.53 13.70L16.53 45.26L11.79 45.26ZM32.67 45.26L32.67 9.47L37.06 9.47L37.06 22.31Q40.14 18.75 44.82 18.75Q47.71 18.75 49.83 19.89Q51.95 21.02 52.87 23.02Q53.78 25.02 53.78 28.83L53.78 45.26L49.39 45.26L49.39 28.83Q49.39 25.54 47.96 24.04Q46.53 22.53 43.92 22.53Q41.97 22.53 40.25 23.55Q38.53 24.56 37.79 26.29Q37.06 28.03 37.06 31.08L37.06 45.26L32.67 45.26ZM60.50 14.53L60.50 9.47L64.89 9.47L64.89 14.53L60.50 14.53M60.50 45.26L60.50 19.34L64.89 19.34L64.89 45.26L60.50 45.26ZM69.82 37.52L74.17 36.84Q74.54 39.45 76.21 40.84Q77.88 42.24 80.88 42.24Q83.91 42.24 85.38 41.00Q86.84 39.77 86.84 38.11Q86.84 36.62 85.55 35.77Q84.64 35.18 81.05 34.28Q76.22 33.06 74.35 32.17Q72.49 31.27 71.52 29.70Q70.56 28.13 70.56 26.22Q70.56 24.49 71.35 23.01Q72.14 21.53 73.51 20.56Q74.54 19.80 76.31 19.27Q78.08 18.75 80.10 18.75Q83.15 18.75 85.46 19.63Q87.77 20.51 88.87 22.01Q89.97 23.51 90.38 26.03L86.08 26.61Q85.79 24.61 84.39 23.49Q82.98 22.36 80.42 22.36Q77.39 22.36 76.10 23.36Q74.80 24.37 74.80 25.71Q74.80 26.56 75.34 27.25Q75.88 27.95 77.03 28.42Q77.69 28.66 80.91 29.54Q85.57 30.79 87.41 31.58Q89.26 32.37 90.31 33.89Q91.36 35.40 91.36 37.65Q91.36 39.84 90.08 41.78Q88.79 43.73 86.38 44.79Q83.96 45.85 80.91 45.85Q75.85 45.85 73.21 43.75Q70.56 41.65 69.82 37.52ZM110.50 14.53L110.50 9.47L114.89 9.47L114.89 14.53L110.50 14.53M110.50 45.26L110.50 19.34L114.89 19.34L114.89 45.26L110.50 45.26ZM119.82 37.52L124.17 36.84Q124.54 39.45 126.21 40.84Q127.88 42.24 130.88 42.24Q133.91 42.24 135.38 41.00Q136.84 39.77 136.84 38.11Q136.84 36.62 135.55 35.77Q134.64 35.18 131.05 34.28Q126.22 33.06 124.35 32.17Q122.49 31.27 121.52 29.70Q120.56 28.13 120.56 26.22Q120.56 24.49 121.35 23.01Q122.14 21.53 123.51 20.56Q124.54 19.80 126.31 19.27Q128.08 18.75 130.10 18.75Q133.15 18.75 135.46 19.63Q137.77 20.51 138.87 22.01Q139.97 23.51 140.38 26.03L136.08 26.61Q135.79 24.61 134.39 23.49Q132.98 22.36 130.42 22.36Q127.39 22.36 126.10 23.36Q124.80 24.37 124.80 25.71Q124.80 26.56 125.34 27.25Q125.88 27.95 127.03 28.42Q127.69 28.66 130.91 29.54Q135.57 30.79 137.41 31.58Q139.26 32.37 140.31 33.89Q141.36 35.40 141.36 37.65Q141.36 39.84 140.08 41.78Q138.79 43.73 136.38 44.79Q133.96 45.85 130.91 45.85Q125.85 45.85 123.21 43.75Q120.56 41.65 119.82 37.52ZM167.68 45.26L157.81 19.34L162.45 19.34L168.02 34.86Q168.92 37.38 169.68 40.09Q170.26 38.04 171.31 35.16L177.08 19.34L181.59 19.34L171.78 45.26L167.68 45.26ZM185.50 14.53L185.50 9.47L189.89 9.47L189.89 14.53L185.50 14.53M185.50 45.26L185.50 19.34L189.89 19.34L189.89 45.26L185.50 45.26ZM194.82 37.52L199.17 36.84Q199.54 39.45 201.21 40.84Q202.88 42.24 205.88 42.24Q208.91 42.24 210.38 41.00Q211.84 39.77 211.84 38.11Q211.84 36.62 210.55 35.77Q209.64 35.18 206.05 34.28Q201.22 33.06 199.35 32.17Q197.49 31.27 196.52 29.70Q195.56 28.13 195.56 26.22Q195.56 24.49 196.35 23.01Q197.14 21.53 198.51 20.56Q199.54 19.80 201.31 19.27Q203.08 18.75 205.10 18.75Q208.15 18.75 210.46 19.63Q212.77 20.51 213.87 22.01Q214.97 23.51 215.38 26.03L211.08 26.61Q210.79 24.61 209.39 23.49Q207.98 22.36 205.42 22.36Q202.39 22.36 201.10 23.36Q199.80 24.37 199.80 25.71Q199.80 26.56 200.34 27.25Q200.88 27.95 202.03 28.42Q202.69 28.66 205.91 29.54Q210.57 30.79 212.41 31.58Q214.26 32.37 215.31 33.89Q216.36 35.40 216.36 37.65Q216.36 39.84 215.08 41.78Q213.79 43.73 211.38 44.79Q208.96 45.85 205.91 45.85Q200.85 45.85 198.21 43.75Q195.56 41.65 194.82 37.52ZM221.61 14.53L221.61 9.47L226.00 9.47L226.00 14.53L221.61 14.53M221.61 45.26L221.61 19.34L226.00 19.34L226.00 45.26L221.61 45.26ZM236.74 45.26L232.67 45.26L232.67 9.47L237.06 9.47L237.06 22.24Q239.84 18.75 244.17 18.75Q246.56 18.75 248.69 19.71Q250.83 20.68 252.21 22.42Q253.59 24.17 254.37 26.64Q255.15 29.10 255.15 31.91Q255.15 38.57 251.86 42.21Q248.56 45.85 243.95 45.85Q239.36 45.85 236.74 42.02L236.74 45.26M236.69 32.10Q236.69 36.77 237.96 38.84Q240.04 42.24 243.58 42.24Q246.46 42.24 248.56 39.73Q250.66 37.23 250.66 32.28Q250.66 27.20 248.65 24.78Q246.63 22.36 243.77 22.36Q240.89 22.36 238.79 24.87Q236.69 27.37 236.69 32.10ZM260.40 45.26L260.40 9.47L264.79 9.47L264.79 45.26L260.40 45.26ZM289.36 36.91L293.90 37.48Q292.82 41.46 289.92 43.65Q287.01 45.85 282.50 45.85Q276.81 45.85 273.47 42.35Q270.14 38.84 270.14 32.52Q270.14 25.98 273.51 22.36Q276.88 18.75 282.25 18.75Q287.45 18.75 290.75 22.29Q294.04 25.83 294.04 32.25Q294.04 32.64 294.02 33.42L274.68 33.42Q274.93 37.70 277.10 39.97Q279.27 42.24 282.52 42.24Q284.94 42.24 286.65 40.97Q288.35 39.70 289.36 36.91M274.93 29.81L289.40 29.81Q289.11 26.54 287.74 24.90Q285.64 22.36 282.30 22.36Q279.27 22.36 277.21 24.39Q275.15 26.42 274.93 29.81ZM314.01 45.26L314.01 9.47L318.75 9.47L318.75 24.17L337.35 24.17L337.35 9.47L342.09 9.47L342.09 45.26L337.35 45.26L337.35 28.39L318.75 28.39L318.75 45.26L314.01 45.26ZM359.08 45.26L359.08 13.70L347.29 13.70L347.29 9.47L375.66 9.47L375.66 13.70L363.82 13.70L363.82 45.26L359.08 45.26ZM380.37 45.26L380.37 9.47L387.50 9.47L395.97 34.81Q397.14 38.35 397.68 40.11Q398.29 38.16 399.58 34.38L408.15 9.47L414.53 9.47L414.53 45.26L409.96 45.26L409.96 15.31L399.56 45.26L395.29 45.26L384.94 14.79L384.94 45.26L380.37 45.26ZM421.97 45.26L421.97 9.47L426.71 9.47L426.71 41.04L444.34 41.04L444.34 45.26L421.97 45.26ZM461.40 45.26L461.40 19.34L465.36 19.34L465.36 23.27Q466.87 20.51 468.15 19.63Q469.43 18.75 470.97 18.75Q473.19 18.75 475.49 20.17L473.97 24.24Q472.36 23.29 470.75 23.29Q469.31 23.29 468.16 24.16Q467.02 25.02 466.53 26.56Q465.80 28.91 465.80 31.69L465.80 45.26L461.40 45.26ZM495.85 36.91L500.39 37.48Q499.32 41.46 496.41 43.65Q493.51 45.85 488.99 45.85Q483.30 45.85 479.97 42.35Q476.64 38.84 476.64 32.52Q476.64 25.98 480.00 22.36Q483.37 18.75 488.75 18.75Q493.95 18.75 497.24 22.29Q500.54 25.83 500.54 32.25Q500.54 32.64 500.51 33.42L481.18 33.42Q481.42 37.70 483.59 39.97Q485.77 42.24 489.01 42.24Q491.43 42.24 493.14 40.97Q494.85 39.70 495.85 36.91M481.42 29.81L495.90 29.81Q495.61 26.54 494.24 24.90Q492.14 22.36 488.79 22.36Q485.77 22.36 483.70 24.39Q481.64 26.42 481.42 29.81ZM505.91 45.26L505.91 19.34L509.86 19.34L509.86 23.02Q512.72 18.75 518.12 18.75Q520.46 18.75 522.42 19.59Q524.39 20.43 525.37 21.80Q526.34 23.17 526.73 25.05Q526.98 26.27 526.98 29.32L526.98 45.26L522.58 45.26L522.58 29.49Q522.58 26.81 522.07 25.48Q521.56 24.15 520.25 23.35Q518.95 22.56 517.19 22.56Q514.38 22.56 512.34 24.34Q510.30 26.12 510.30 31.10L510.30 45.26L505.91 45.26ZM550.54 45.26L550.54 41.99Q548.07 45.85 543.29 45.85Q540.19 45.85 537.59 44.14Q534.99 42.43 533.56 39.37Q532.13 36.30 532.13 32.32Q532.13 28.44 533.42 25.28Q534.72 22.12 537.30 20.43Q539.89 18.75 543.09 18.75Q545.43 18.75 547.27 19.74Q549.10 20.73 550.24 22.31L550.24 9.47L554.61 9.47L554.61 45.26L550.54 45.26M536.65 32.32Q536.65 37.30 538.75 39.77Q540.84 42.24 543.70 42.24Q546.58 42.24 548.60 39.88Q550.61 37.52 550.61 32.69Q550.61 27.37 548.56 24.88Q546.51 22.39 543.51 22.39Q540.58 22.39 538.61 24.78Q536.65 27.17 536.65 32.32ZM579.27 36.91L583.81 37.48Q582.74 41.46 579.83 43.65Q576.93 45.85 572.41 45.85Q566.72 45.85 563.39 42.35Q560.06 38.84 560.06 32.52Q560.06 25.98 563.43 22.36Q566.80 18.75 572.17 18.75Q577.37 18.75 580.66 22.29Q583.96 25.83 583.96 32.25Q583.96 32.64 583.94 33.42L564.60 33.42Q564.84 37.70 567.02 39.97Q569.19 42.24 572.44 42.24Q574.85 42.24 576.56 40.97Q578.27 39.70 579.27 36.91M564.84 29.81L579.32 29.81Q579.03 26.54 577.66 24.90Q575.56 22.36 572.22 22.36Q569.19 22.36 567.13 24.39Q565.06 26.42 564.84 29.81ZM589.28 45.26L589.28 19.34L593.24 19.34L593.24 23.27Q594.75 20.51 596.03 19.63Q597.31 18.75 598.85 18.75Q601.07 18.75 603.37 20.17L601.86 24.24Q600.24 23.29 598.63 23.29Q597.19 23.29 596.04 24.16Q594.90 25.02 594.41 26.56Q593.68 28.91 593.68 31.69L593.68 45.26L589.28 45.26ZM623.73 36.91L628.27 37.48Q627.20 41.46 624.29 43.65Q621.39 45.85 616.87 45.85Q611.18 45.85 607.85 42.35Q604.52 38.84 604.52 32.52Q604.52 25.98 607.89 22.36Q611.25 18.75 616.63 18.75Q621.83 18.75 625.12 22.29Q628.42 25.83 628.42 32.25Q628.42 32.64 628.39 33.42L609.06 33.42Q609.30 37.70 611.47 39.97Q613.65 42.24 616.89 42.24Q619.31 42.24 621.02 40.97Q622.73 39.70 623.73 36.91M609.30 29.81L623.78 29.81Q623.49 26.54 622.12 24.90Q620.02 22.36 616.67 22.36Q613.65 22.36 611.58 24.39Q609.52 26.42 609.30 29.81ZM650.61 45.26L650.61 41.99Q648.14 45.85 643.36 45.85Q640.26 45.85 637.66 44.14Q635.06 42.43 633.63 39.37Q632.20 36.30 632.20 32.32Q632.20 28.44 633.50 25.28Q634.79 22.12 637.38 20.43Q639.97 18.75 643.16 18.75Q645.51 18.75 647.34 19.74Q649.17 20.73 650.32 22.31L650.32 9.47L654.69 9.47L654.69 45.26L650.61 45.26M636.72 32.32Q636.72 37.30 638.82 39.77Q640.92 42.24 643.77 42.24Q646.66 42.24 648.67 39.88Q650.68 37.52 650.68 32.69Q650.68 27.37 648.63 24.88Q646.58 22.39 643.58 22.39Q640.65 22.39 638.68 24.78Q636.72 27.17 636.72 32.32ZM675.51 14.53L675.51 9.47L679.91 9.47L679.91 14.53L675.51 14.53M675.51 45.26L675.51 19.34L679.91 19.34L679.91 45.26L675.51 45.26ZM686.60 45.26L686.60 19.34L690.55 19.34L690.55 23.02Q693.41 18.75 698.80 18.75Q701.15 18.75 703.11 19.59Q705.08 20.43 706.05 21.80Q707.03 23.17 707.42 25.05Q707.67 26.27 707.67 29.32L707.67 45.26L703.27 45.26L703.27 29.49Q703.27 26.81 702.76 25.48Q702.25 24.15 700.94 23.35Q699.63 22.56 697.88 22.56Q695.07 22.56 693.03 24.34Q690.99 26.12 690.99 31.10L690.99 45.26L686.60 45.26ZM712.65 37.52L716.99 36.84Q717.36 39.45 719.03 40.84Q720.70 42.24 723.71 42.24Q726.73 42.24 728.20 41.00Q729.66 39.77 729.66 38.11Q729.66 36.62 728.37 35.77Q727.47 35.18 723.88 34.28Q719.04 33.06 717.18 32.17Q715.31 31.27 714.34 29.70Q713.38 28.13 713.38 26.22Q713.38 24.49 714.17 23.01Q714.97 21.53 716.33 20.56Q717.36 19.80 719.13 19.27Q720.90 18.75 722.92 18.75Q725.98 18.75 728.28 19.63Q730.59 20.51 731.69 22.01Q732.79 23.51 733.20 26.03L728.91 26.61Q728.61 24.61 727.21 23.49Q725.81 22.36 723.24 22.36Q720.21 22.36 718.92 23.36Q717.63 24.37 717.63 25.71Q717.63 26.56 718.16 27.25Q718.70 27.95 719.85 28.42Q720.51 28.66 723.73 29.54Q728.39 30.79 730.24 31.58Q732.08 32.37 733.13 33.89Q734.18 35.40 734.18 37.65Q734.18 39.84 732.90 41.78Q731.62 43.73 729.20 44.79Q726.78 45.85 723.73 45.85Q718.68 45.85 716.03 43.75Q713.38 41.65 712.65 37.52ZM739.43 14.53L739.43 9.47L743.82 9.47L743.82 14.53L739.43 14.53M739.43 45.26L739.43 19.34L743.82 19.34L743.82 45.26L739.43 45.26ZM767.33 45.26L767.33 41.99Q764.87 45.85 760.08 45.85Q756.98 45.85 754.38 44.14Q751.78 42.43 750.35 39.37Q748.93 36.30 748.93 32.32Q748.93 28.44 750.22 25.28Q751.51 22.12 754.10 20.43Q756.69 18.75 759.89 18.75Q762.23 18.75 764.06 19.74Q765.89 20.73 767.04 22.31L767.04 9.47L771.41 9.47L771.41 45.26L767.33 45.26M753.44 32.32Q753.44 37.30 755.54 39.77Q757.64 42.24 760.50 42.24Q763.38 42.24 765.39 39.88Q767.41 37.52 767.41 32.69Q767.41 27.37 765.36 24.88Q763.31 22.39 760.30 22.39Q757.37 22.39 755.41 24.78Q753.44 27.17 753.44 32.32ZM796.07 36.91L800.61 37.48Q799.54 41.46 796.63 43.65Q793.73 45.85 789.21 45.85Q783.52 45.85 780.19 42.35Q776.86 38.84 776.86 32.52Q776.86 25.98 780.22 22.36Q783.59 18.75 788.96 18.75Q794.17 18.75 797.46 22.29Q800.76 25.83 800.76 32.25Q800.76 32.64 800.73 33.42L781.40 33.42Q781.64 37.70 783.81 39.97Q785.99 42.24 789.23 42.24Q791.65 42.24 793.36 40.97Q795.07 39.70 796.07 36.91M781.64 29.81L796.12 29.81Q795.83 26.54 794.46 24.90Q792.36 22.36 789.01 22.36Q785.99 22.36 783.92 24.39Q781.86 26.42 781.64 29.81ZM836.94 42.07Q834.50 44.14 832.24 45.00Q829.98 45.85 827.39 45.85Q823.12 45.85 820.83 43.76Q818.53 41.67 818.53 38.43Q818.53 36.52 819.40 34.95Q820.26 33.37 821.67 32.42Q823.07 31.47 824.83 30.98Q826.12 30.64 828.74 30.32Q834.06 29.69 836.57 28.81Q836.60 27.91 836.60 27.66Q836.60 24.98 835.35 23.88Q833.67 22.39 830.35 22.39Q827.25 22.39 825.77 23.47Q824.29 24.56 823.58 27.32L819.29 26.73Q819.87 23.97 821.22 22.28Q822.56 20.58 825.10 19.67Q827.64 18.75 830.98 18.75Q834.30 18.75 836.38 19.53Q838.45 20.31 839.43 21.50Q840.41 22.68 840.80 24.49Q841.02 25.61 841.02 28.54L841.02 34.40Q841.02 40.53 841.30 42.15Q841.58 43.77 842.41 45.26L837.82 45.26Q837.13 43.90 836.94 42.07M836.57 32.25Q834.18 33.23 829.39 33.91Q826.68 34.30 825.56 34.79Q824.44 35.28 823.83 36.22Q823.22 37.16 823.22 38.31Q823.22 40.06 824.55 41.24Q825.88 42.41 828.44 42.41Q830.98 42.41 832.96 41.30Q834.94 40.19 835.86 38.26Q836.57 36.77 836.57 33.86L836.57 32.25ZM847.83 45.26L847.83 19.34L851.78 19.34L851.78 23.02Q854.64 18.75 860.03 18.75Q862.38 18.75 864.34 19.59Q866.31 20.43 867.29 21.80Q868.26 23.17 868.65 25.05Q868.90 26.27 868.90 29.32L868.90 45.26L864.50 45.26L864.50 29.49Q864.50 26.81 863.99 25.48Q863.48 24.15 862.17 23.35Q860.86 22.56 859.11 22.56Q856.30 22.56 854.26 24.34Q852.22 26.12 852.22 31.10L852.22 45.26L847.83 45.26Z"/></g><g transform="translate(0, 121.19140625)"><path d="M0 33.76L4.47 33.37Q4.79 36.06 5.94 37.78Q7.10 39.50 9.55 40.56Q11.99 41.63 15.04 41.63Q17.75 41.63 19.82 40.82Q21.90 40.01 22.91 38.61Q23.93 37.21 23.93 35.55Q23.93 33.86 22.95 32.60Q21.97 31.35 19.73 30.49Q18.29 29.93 13.35 28.75Q8.42 27.56 6.45 26.51Q3.88 25.17 2.62 23.18Q1.37 21.19 1.37 18.73Q1.37 16.02 2.91 13.66Q4.44 11.30 7.40 10.08Q10.35 8.86 13.96 8.86Q17.94 8.86 20.98 10.14Q24.02 11.43 25.66 13.92Q27.29 16.41 27.42 19.56L22.88 19.90Q22.51 16.50 20.40 14.77Q18.29 13.04 14.16 13.04Q9.86 13.04 7.90 14.61Q5.93 16.19 5.93 18.41Q5.93 20.34 7.32 21.58Q8.69 22.83 14.47 24.13Q20.24 25.44 22.39 26.42Q25.51 27.86 27.00 30.07Q28.49 32.28 28.49 35.16Q28.49 38.01 26.86 40.54Q25.22 43.07 22.16 44.47Q19.09 45.87 15.26 45.87Q10.40 45.87 7.12 44.46Q3.83 43.04 1.97 40.20Q0.10 37.35 0 33.76ZM45.19 45.26L31.32 9.47L36.45 9.47L45.75 35.47Q46.88 38.60 47.63 41.33Q48.46 38.40 49.56 35.47L59.23 9.47L64.06 9.47L50.05 45.26L45.19 45.26ZM85.06 31.23L85.06 27.03L100.22 27.00L100.22 40.28Q96.73 43.07 93.02 44.47Q89.31 45.87 85.40 45.87Q80.13 45.87 75.82 43.62Q71.51 41.36 69.31 37.08Q67.11 32.81 67.11 27.54Q67.11 22.31 69.30 17.79Q71.48 13.26 75.59 11.06Q79.69 8.86 85.03 8.86Q88.92 8.86 92.05 10.12Q95.19 11.38 96.97 13.62Q98.75 15.87 99.68 19.48L95.41 20.65Q94.60 17.92 93.41 16.36Q92.21 14.79 89.99 13.85Q87.77 12.92 85.06 12.92Q81.81 12.92 79.44 13.90Q77.08 14.89 75.62 16.50Q74.17 18.12 73.36 20.04Q72.00 23.36 72.00 27.25Q72.00 32.03 73.65 35.25Q75.29 38.48 78.44 40.04Q81.59 41.60 85.13 41.60Q88.21 41.60 91.14 40.42Q94.07 39.23 95.58 37.89L95.58 31.23L85.06 31.23ZM107.89 45.26L107.89 40.26L112.89 40.26L112.89 45.26L107.89 45.26ZM121.78 45.26L121.78 40.26L126.78 40.26L126.78 45.26L121.78 45.26ZM135.67 45.26L135.67 40.26L140.67 40.26L140.67 45.26L135.67 45.26ZM149.56 45.26L149.56 40.26L154.57 40.26L154.57 45.26L149.56 45.26ZM163.45 45.26L163.45 40.26L168.46 40.26L168.46 45.26L163.45 45.26ZM177.34 45.26L177.34 40.26L182.35 40.26L182.35 45.26L177.34 45.26ZM191.24 45.26L191.24 40.26L196.24 40.26L196.24 45.26L191.24 45.26ZM205.13 45.26L205.13 40.26L210.13 40.26L210.13 45.26L205.13 45.26ZM219.02 45.26L219.02 40.26L224.02 40.26L224.02 45.26L219.02 45.26ZM232.91 45.26L232.91 40.26L237.92 40.26L237.92 45.26L232.91 45.26ZM246.80 45.26L246.80 40.26L251.81 40.26L251.81 45.26L246.80 45.26Z"/></g></g></svg>